<svg xmlns="http://www.w3.org/2000/svg" viewBox="0 0 492.63 542.57"><defs><style>.cls-1{fill:#163c94;}.cls-1,.cls-2,.cls-3{fill-rule:evenodd;}.cls-2{fill:#ed1c24;}.cls-3{fill:#fff200;}</style></defs><title>Asset 3</title><g id="Layer_2" data-name="Layer 2"><g id="Layer_1-2" data-name="Layer 1"><path class="cls-1" d="M300.61,95.28s-.93.44-1.31.64a3,3,0,0,1-1.94.24,9.75,9.75,0,0,0-4.13-1c-2.32,0-5.65,1.6-5.61,5.29a15.92,15.92,0,0,0,.61,5c.13.73.22,1.06.22,1.06s-7.23,1.37-6.86,7.88c.28,4.8,1.58,5,2.37,5.29,0,0,1.25-.1,1.53.24a5.68,5.68,0,0,1,.55,2.67c-.09.68-.23,1.65-1.06,1.75a7.19,7.19,0,0,1-4.82-1.36c-2.41-1.51-4.08-3.45-4.22-5.54s0-2.72.46-3.54,1.11-1.31,1.62-2.28a2.53,2.53,0,0,0,.19-2.34,1.83,1.83,0,0,1,0-1.94c.47-.53,2.6-2.23,3-4a11.78,11.78,0,0,0,.51-4.71c-.24-1.8-2.18-9.27-7.93-9.27S266,94.94,265.92,98s.46,3.89.7,6.07-1,3.06-1,4.52.51,3.64.41,5.24.19,5.34-4.54,5.34-7.88-1.79-8-5,.83-3.35,1.71-3.3,2.18,1.31,2.69,2.67,1,1.34,1.53,1.31,2-.68,2.92-4.08,1.39-4.85,1.26-7.09S261,93.15,259.2,93.15s-1.49,3-3.71,3a2.56,2.56,0,0,1-2.55-2.67c.09-3.59,5.33-5.54,5.33-7.19s-1-4-3.06-4.17-2.5.43-2.5.43A7.77,7.77,0,0,0,250.53,80c-1.39-1-2.83-2.19-4.08-2.19h-.28c-1.25,0-2.69,1.22-4.08,2.19a7.77,7.77,0,0,0-2.18,2.52s-.46-.58-2.5-.43-3.06,2.52-3.06,4.17,5.24,3.6,5.33,7.19a2.57,2.57,0,0,1-2.55,2.67c-2.23,0-1.95-3-3.71-3s-4.27,8.25-4.4,10.48.37,3.7,1.25,7.09,2.41,4.06,2.92,4.08,1,0,1.53-1.31,1.81-2.62,2.69-2.67,1.81.1,1.71,3.3-3.24,5-8,5-4.45-3.74-4.55-5.34.42-3.78.42-5.24-1.25-2.33-1-4.52.74-3.06.7-6.07-2.09-8.54-7.84-8.54-7.69,7.47-7.93,9.27a11.78,11.78,0,0,0,.51,4.71c.42,1.75,2.55,3.45,3,4a1.83,1.83,0,0,1-.05,1.94,2.53,2.53,0,0,0,.19,2.34c.51,1,1.16,1.45,1.62,2.28s.6,1.45.46,3.54-1.8,4-4.22,5.54a7.18,7.18,0,0,1-4.82,1.36c-.83-.1-1-1.07-1.07-1.75a5.8,5.8,0,0,1,.56-2.67c.28-.34,1.53-.24,1.53-.24.79-.25,2.09-.49,2.37-5.29.37-6.51-6.86-7.88-6.86-7.88s.09-.33.23-1.06a16.11,16.11,0,0,0,.6-5c0-3.69-3.29-5.34-5.61-5.29a9.6,9.6,0,0,0-4.13,1,3,3,0,0,1-1.95-.24c-.37-.2-1.29-.64-1.29-.64-4.45-.58-4.46,1.37-4.59,1.9a1.34,1.34,0,0,0,1.06,1.36,8.79,8.79,0,0,1,3.28,1.3c.79.64.51,7.65.51,10.09s.26,8.38.34,8.92a16.15,16.15,0,0,0,4.22,5.55c2.58,2.3,7.72,4.33,8.26,4.88s.52,2.55.52,2.55l.07,18-1.78,1,.48.15-.42,0c-4.28,2.34-9,7.79-15.89,11A114.74,114.74,0,0,1,174,168a62.17,62.17,0,0,1-12.39,3.38c-6.61,1.18-10,2.1-13.39,2s-5-.91-4.86-2,4-3,6.79-5.41,5.77-6.25,6.2-7.49c1-2.94-1.63-2.39-2.36,0-.37,1.23-.61,1.45-1.79,1.45s-2.25-2.71-4.17-2.87-6.72.46-6.54,1.76,4.17,1.82,4,2.8-3,4.11-4.86,3.79-2.8-4-2.92-6,2.92-7.31,5.91-8.15,3.8-1.18,4.55-.59.68,2.87,3.67,3.32c0,0,0-.07,1.2.52s2.23,1.51,2.35,1.05-.33-3.3-1.94-4a8.73,8.73,0,0,1-3.6-3c-.75-1.11-3.17-6.61-5.26-7.64s-4.33-1-8.5-2.08-9.84-3.19-13.52-3.26-9.73,4-12.62,4.92-5.18,1.21-8.45,2.38-3,5-7.38,7.31c-3.13,1.61-1.75,2-3.11,2.67s-4.61.78-5,3.26-1.12,5.48-.87,7.43a22.41,22.41,0,0,1,.12,5.35c-.18,1.17-1.24,1.11-.93,4.18s1.49,6.51,5.42,8.6,7.9,2.74,10,5.55,4.16,5.36,5.19,8.09,1.41,3.51,1.35,8.47-.44,15.06-1.06,19.3-1.87,13.44-2.87,19.11-4.35,18.06-5.6,22.76-1.49,13.7-2.49,17.15-3.13,7.59-2.35,9.13c-.64,1.87,2.69,3.26,7,5.07,2.51,1.73,9.76,6.54,11.93,9.87,3.66,5.62,4.93,3.4,8.15,6.58a8.85,8.85,0,0,1,1.87,5.54,51.12,51.12,0,0,0,1.74,10.43c2.68,9.15,3.78,11.61,5.33,10.6,1.76-.91-1.46-8-2.27-9.42s-1.34-1.57-1.46-4.18,1-4.1,1.33-6.59-1.93-4.76-1.93-6.06,1.25-.33,1.87.13,5.17,3.78,7.66,4.63,3.15,1.6,3.47,2.64-.86,3.72.89,8.8.22,8.11,1,11c0,2.87-4.15,5.84-4.12,6.61-1.42,0-4.29-3.67-7.09-3.47s-3.11,2-2.8,3,3.82.83,3.64,1.81-2,2.11-1.36,3.22,3-.34,3.9-.21-.17,2.36-1.11,3.61-1.79,2.54-.54,2.81,2.39-1.35,3.39-1,.61,1.31-.45,3.46-4,5.15-4.5,9.58c-1.46,6.36,5.13,17.68,5.79,16.37-1.36-5.62-1.32-8-.54-15,1.39-12.47,7.18-27.75,13.1-35.69.94-3.08,2.59-8.55,2.4-11.19-.33-4.48-5.08-9.86-7.69-10.44-3.92-.88-8-1-9.75-1.53s-7.16-1.89-7-3.07,20.65-7.68,21.57-10.18-.6-11.81-2.06-18.48c-.75-7-1.48-16.72-2.6-28.36s-1.61-31.24-2.08-37.21-2.56-21.72-.27-23.42c3.09-3.29,18.5,2.87,21,4.06.42.21-5.31,6.6-4.91,5.38.41.78,187.35,1.31,187.27.23,0,0-1.27-3.07-3.8-3.93s-1.88-.58-.29-1,18.26-7.33,18.21-3.91c1.31.49,1,2,.94,3.62s-.29,19.46-1.12,27-1.13,24.55-1.87,32.08-1.59,22-1.87,27.49-2,10.36,4.11,16,15.06,7.6,14.77,9.28-5.71,3.63-9.82,4.22c-7.36-2.49-16.67,4.61-14.67,17.64-.22.54-.53,10.58,4.79,20.36,2.67,2.19,7.68,9,10,19.15,1.06,4.6.53,9.87.51,16.29.52.21,4.06-9.78,4-14.2,1.32-9.08-8.11-14.43-8.68-15.62.84-1.66,4.81,2.25,5.37,1.18s-3.41-5.58-2.8-6.31,3.46,1.41,4.16.73-1.68-2.74-.66-3.91,4.21-.88,3.32-2.94-1.43-2.15-2.38-2.15c-5,0-8.94,9.37-10.11,8.25s-1.1-1.44-1.2-3.84-.46-15.49-.18-16.52,4.51-3.43,4.81-4.18c-.05-2.88-2.08-7.18-1.5-7.79s7-1.15,9-2.82,4.16-3.81,4.9-3.81,1.13-.44,1.13.34-2.57,4.35-2.25,5.58,3.37,4.59,3.13,6.3-2.24,3.43-3.59,6.8c-1.85,3.46-2.55,5.91-1.08,7.32-.11,0,2.54,2.52,4.3-6.54a25,25,0,0,0,2.05-9.83c.19-4.1-.14-7.23.28-8.75s1.69-.62,2.27-.6.91-1.4,1.75-1.7c0,0,4-1.39,5.42-4.46a12.23,12.23,0,0,1,3.31-3.76c2.76-2.29,6.78-6.26,9.11-7.48s6.54-1.86,6.59-3.66-1.36-9.35-2.15-14.83-2.11-10.71-3-15.21-3.5-12.86-4.44-18.38S390.63,234.19,390,227s-1.73-18.73-1.91-23.38-.28-5.33.42-7.38,3.41-7.15,6.54-9.79a36,36,0,0,1,10.41-6.16c3.64-1.37,4.11-2.15,4.39-5.43s.14-5.77-.51-7.24-.15-6.35-.05-7.77-.61-5.23-2.94-6.55-2.57-.54-3.32-1a23,23,0,0,1-3.36-3.08,68,68,0,0,0-6.87-7.14c-2.24-1.76-4-1.18-6.16-1.52s-6.4-2.69-7.94-3.42a23.25,23.25,0,0,0-7.57-1.77,19.4,19.4,0,0,0-6.26.79c-2.56.73-6.21,1.86-8.82,2.44s-4.62.69-6.4,1.86-3.83,5.43-4.53,6.7.19,1.62-2.48,2.64-2.29,2.71-2.83,3.33-1.24,1.32,0,1.52a5.52,5.52,0,0,0,4.31-1.57c1.12-1.17,2.43-3.13,4.53-3.18a5.7,5.7,0,0,1,4.67,2.35c1.26,1.42,2.62,2.3,2.94,4.45s.8,3,.38,4.11-.66,3.23-1.55,3.47-6.21-2.1-6-2.94,4.25-1.36,4.11-2.78-1.78-2.06-5.38-2-4.06,2.2-5.27,2.79-2.29-1.47-3.08-2.49-.6-1.72-1.2-1.38-.36,2.47,1.49,4.83S350.42,169,350.37,170s-2.38,1.76-6.63,1.71-8.73.2-14.25-1.51-12.09-3.58-14.94-4.5-14.35-6-16.11-6.85a60.76,60.76,0,0,1-10.71-7.41l.53-.12-.64,0c-.33-.27-.63-.53-.89-.76l.19-.06.08-18.72s0-2,.52-2.55,5.68-2.58,8.26-4.88a16,16,0,0,0,4.22-5.55c.09-.54.34-6.49.34-8.92s-.28-9.45.51-10.09a8.72,8.72,0,0,1,3.28-1.3,1.33,1.33,0,0,0,1.06-1.36c-.13-.53-.13-2.48-4.58-1.9ZM280.34,130.2c-3.06,0-11.54-4.86-34-4.62-22.49-.24-31,4.62-34,4.62s-3.8-1.9-3.58-2.45,1,.21,2.1.36,3.1-1.36,5.56-3.84,3-6,3-8.54-1.21-3.35-1.49-3.55-.05-2.14.47-2.09,1.29,1.61,1.8,2.33,1.35,2.43,1.07,5.59-2.32,6.36-2.64,7,.18,1.06.79,1.21,1.8-1.16,2.08-1.75S221.83,122,223,122s4.46,3.54,5.06,3.54a1.26,1.26,0,0,0,1.2-.77,1.21,1.21,0,0,0,0-1.32c-.32-.53-3.15-1.69-4.47-3.42s-1.18-5.17-1.27-5.61-1.63-.19-1.63-.82.65-.88,1-1.24.49-3.52,1.1-3.47.78,2.13.78,5.29,2.83,7.43,8.58,7.23,8.76-6.31,8.85-9.17a5.33,5.33,0,0,0-4.49-5.1c-1.67,0-3.48,2.57-3.9,2.82s-.83-.25-1.34-.64.14-8,.14-8.74,0-1.35,1.06-1.55,3.81,2.67,4.59,2.67,1.58-1.21,2-3.2,3-4.52,3.77-5a4.52,4.52,0,0,1,4.32,0c.81.46,3.31,3,3.77,5s1.26,3.2,2,3.2,3.57-2.86,4.59-2.67,1.07.83,1.07,1.55.65,8.36.14,8.74-.93.88-1.34.64-2.23-2.82-3.9-2.82a5.35,5.35,0,0,0-4.5,5.1c.09,2.86,3.11,9,8.86,9.17s8.58-4.07,8.58-7.23.18-5.24.79-5.29.71,3.11,1.09,3.47,1,.61,1,1.24-1.53.39-1.62.82,0,3.89-1.29,5.61-4.14,2.89-4.46,3.42a1.21,1.21,0,0,0,0,1.32,1.26,1.26,0,0,0,1.2.77c.6,0,3.85-3.54,5.05-3.54s1.35,1.89,1.63,2.47,1.48,1.9,2.08,1.75,1.12-.53.79-1.21-2.36-3.89-2.64-7,.56-4.86,1.07-5.59,1.29-2.28,1.8-2.33.75,1.9.47,2.09-1.49,1-1.49,3.55.51,6.07,3,8.54,4.45,4,5.56,3.84,1.88-.9,2.1-.36-.52,2.45-3.58,2.45ZM72,384.68c-4.37-8.52-3.18-21.34-4.14-20.25-3.54,4-5.64.13-7.26-3.14-.74-1.47-1.45-3-2.14-4.67,4-16.8,12.11-29.89,19.67-46.66,4.57-10.15-2.38-23.55.82-33.57-15.6,8.67-25.46,17.92-30.91,27.5q.14-2,.42-3.63C83,248.1,32.34,263,61.49,217.38,16.1,242.9,26.42,267.53,35,288.63a90.92,90.92,0,0,1,3.33,11.49,12.88,12.88,0,0,1-2.91-3.94C31.26,286.51,17,284,17.08,297.61c15.51-6.48,22.8,11.81,25.53,26.58a49.11,49.11,0,0,0,2.74,15.38C50.49,363,58,380.64,58.92,376.88c.85,1-.72,1-1.23.79C50.27,375.87,48.26,363.45,47,361c-6.45-12.19-1.22-31-22.19-38.9-4.41-1.28-12.75-15.59-12.17-17.82-.06,1.27-5.17,11.9-8.32,18.17-9,23.23-6.34,36.7,29.95,49.66a154.15,154.15,0,0,0,31,15.4c-1.39,0-30,5.45-23.67-4.71.32-6.63-18.61-9.4-17.5-9.74-8.66,32.84,37.45,14.36,55.32,28.57,0,0-4.83-12.49-7.49-17ZM149.7,486.43a34,34,0,0,1-7.39-4.73,49,49,0,0,1-8.14-8.85s-7.85-12.4-10.25-23.75c-.4-1.55-5.89-18.21-3.71-20.9,19.07-77-18.67-41.51-24.89-92.18,2,0-14,29.24-11.88,45.93v.54c-13.65-6.91-6.25-27.85,1.07-34.95,5.29-4.71,3.27-9-2-7.86-3.71.77-6.27,4-8.55,7.38-7.75,11.48-5.52,35.55,6.84,39.63,1.09.61,2.09,1.27,3,1.84-2.34,16.42,15.83,40.33,30.38,60,2.64,3.66,4.45,8.51,3.51,8.63s-3.27-6.27-5.53-8.75-8.7-9-11.42-12.06c-15.15-20.88-19.8-35-32.79-37.64-14.62-3-22.78,1.46-44.15.11-5.25-.33-6.8-.78-10.33-1.18C27.93,408,27.65,409.47,37.58,425.77c12.67,20.81,27.76,19.1,52.18,20.49,9,1.06,14.56,7.45,17.48,10.64s10.29,14.67,10.29,14.67a77.25,77.25,0,0,1-14.61,1.1,72.39,72.39,0,0,0-12.12-1.56c0-2.22,8.17.22,15.81.29,3,.06,6.26.08,5.28-.9-1.2-1.18-3.46-2.94-5.35-2.94s-6.06.22-9,0a121.64,121.64,0,0,0-13.21.12c-1.34.24-1.47-.59-.39-.94s11.6-.48,14.15-.48c7.78,0,8,.07,7.87,0a26.6,26.6,0,0,1,3.08.31c.6,0,1.4.39,1.56.17s-3.44-3.19-7.57-3.72-11.82-.37-17.21-.19-7.21.47-10.44.35-4.51-.53-5.64-1.06-3-1.16-2.79-1.58,6.84.81,15.92.33c5.87-.31,16.87.17,16.87.17S90,450.21,76.38,450.21,50.49,457.37,50.47,459s7.87,19,21.7,19,17.29-2.82,28.28-2.82,22.46,6.43,27.18,7.76c4.44,2.17,16.64,5.5,19.67,5.5s3.15-1.83,2.4-2ZM400.72,180c-2.78.28-8-.84-8-1.87s6.15-3.54,6.82-5,1.27-3.07.26-3.17-4.35,1.86-7,1.68-5.16-3.58-6-3.8c0,0,.14.35-1.55.72s-5.3,1-6.91.19-3.54-3.92-4.12-4.94a12.24,12.24,0,0,0-.93-1.77c-.76-1.12-.3-4.91-.3-4.91s-2.91,4.69-4.59,4.15a3.39,3.39,0,0,1-2-2.51,1.41,1.41,0,0,1-2,.56c-1.35-.74-2.91-3.25-4.32-4.89s-2.72-3.84-3.75-4.42-4.48-.8-5-1.2.07-4.31,3.44-4.4a23.45,23.45,0,0,1,6.4.65c1.51.28,8.34-6.43,13-6.06s7.33,7.18,10.36,7.46,6.91-1.19,7.75-.56,3.88,5.78,4.8,6.15.12,1.78.65,2.38,1.86.76,3.23,1.72,2.61,1.77,3.2,3.45a10.47,10.47,0,0,1,.25,5.32c-.33,1.4-1.09,1.58-.92,3.07s2.19,3.64,1.93,5.22-1.85,6.53-4.63,6.81ZM252.13,450.69c.26,1.28,1.59,1.84,2.91,1.84,1.86,0,3.3-1.28,3.54-5.3a5.19,5.19,0,0,1-4.07,1.88c-3.8,0-6.5-2.89-6.5-7.12,0-3.24,1.39-7.85,7.08-7.85,1.84,0,7.45.21,7.45,10.54,0,2.23-.27,11.48-7.69,11.48-4.64,0-6-3.3-6.48-5.47Zm-18.1.48c.26,1.27,1.59,1.83,2.89,1.83,1.86,0,3.29-1.28,3.52-5.27a5.13,5.13,0,0,1-4,1.87c-3.78,0-6.47-2.88-6.47-7.08,0-3.23,1.38-7.82,7-7.82,1.82,0,7.41.21,7.41,10.49,0,2.22-.27,11.42-7.65,11.42-4.62,0-6-3.28-6.44-5.44ZM344.7,488.33a34.69,34.69,0,0,0,8.82-5.71,46,46,0,0,0,7.08-8.71s7.67-13,10-24.53c.4-1.57,5.29-19.23,3.13-22-18.86-78.3,18.46-42.2,24.61-93.71-2,0,13.87,29.73,11.74,46.69,0,.18,0,.37,0,.55,13.49-7,6.18-28.31-1.06-35.53-5.23-4.79-3.23-9.1,2-8,3.66.79,6.19,4.07,8.45,7.51,7.66,11.67,5.46,36.14-6.76,40.28-1.08.62-2.07,1.29-2.92,1.87,2.32,16.7-15.65,41-30,61-2.61,3.73-4.4,8.65-3.46,8.78s3.95-5.29,6.18-7.82,7.88-10.21,10.57-13.34c15-21.22,19.58-35.55,32.42-38.26,14.46-3.05,22.53,1.48,43.65.11,5.19-.33,6.73-.79,10.22-1.19-14.37,10.58-14.1,12-23.92,28.61C443,446.1,428,444.36,403.88,445.78c-8.94,1.08-14.4,7.57-17.28,10.82s-10.18,14.9-10.18,14.9a73.56,73.56,0,0,0,14.45,1.13,69.33,69.33,0,0,1,12-1.59c0-2.26-8.08.22-15.63.29-3,.06-6.19.09-5.22-.91,1.18-1.2,3.42-3,5.29-3s6,.23,8.92,0a116,116,0,0,1,13.05.13c1.34.23,1.46-.6.39-1s-11.46-.49-14-.49c-7.69,0-7.92.07-7.78,0a25.84,25.84,0,0,0-3,.31c-.6,0-1.39.4-1.55.18s3.4-3.25,7.49-3.79,11.68-.37,17-.19,7.13.48,10.33.36,4.45-.54,5.58-1.08,3-1.17,2.75-1.61-6.76.83-15.74.34c-5.8-.32-16.68.17-16.68.17s9.59-11,23.08-11,25.59,7.28,25.62,9S435,478,421.27,478s-17.09-2.88-28-2.88-22.21,6.26-26.88,7.61-16.09,6.89-19.09,6.89-3.39-1.16-2.64-1.33Zm76.78-105.15c4.32-8.67,3.14-21.69,4.1-20.59,3.49,4,5.57.14,7.17-3.18q1.1-2.27,2.11-4.76c-4-17.07-12-30.38-19.44-47.43-4.52-10.31,2.35-23.94-.82-34.13,15.43,8.82,25.18,18.22,30.57,28-.09-1.31-.23-2.54-.42-3.68-34.17-53,15.9-37.86-12.92-84.26,44.88,26,34.67,51,26.21,72.43a94.21,94.21,0,0,0-3.29,11.68,12.86,12.86,0,0,0,2.88-4c4.09-9.83,18.24-12.41,18.11,1.45-15.33-6.58-22.54,12-25.24,27a51.31,51.31,0,0,1-2.71,15.65c-5.08,23.8-12.54,41.75-13.41,37.92-.85,1,.7,1,1.21.8,7.33-1.82,9.32-14.45,10.54-16.9,6.37-12.4,1.2-31.51,21.93-39.54,4.37-1.31,12.62-15.86,12-18.12.06,1.29,5.11,12.1,8.23,18.47,8.88,23.61,6.26,37.3-29.62,50.48a151.1,151.1,0,0,1-30.64,15.66c1.37,0,29.62,5.54,23.4-4.79-.32-6.74,18.4-9.56,17.3-9.91,8.57,33.39-37,14.6-54.7,29.05,0,0,4.78-12.7,7.41-17.27ZM244.27,208.6H349l-.5,47.62c-8.2,5.75-12,50.34-11.06,52.19.28.55-1.94,3.87,2.34,22.92.64,2.81,5.41,17.29,10.27,29.72,17.41,44.54,1.78,92.69-47.5,103.75q-7,1.57-14.86,3c-21.06,3.74-39.07,20.12-39.25,20.28L246,489.91,243.65,488l-.79-.69v-.15c-5.82-4.68-20.26-15.1-36.52-18q-7.84-1.38-14.86-3C142.2,455.19,126.56,407,144,362.5c4.86-12.43,9.63-26.91,10.26-29.71,4.29-19.05,2.07-22.38,2.35-22.93.94-1.85-2.36-48.75-10.55-54.51l0-46.59,98.21-.16Zm1.48,272.49.28.24c5.33-4.47,21.48-16.86,40.57-20.24,48.87-8.67,74.45-45.37,56.46-98.8,0,.08-5.69-14.75-5.72-14.81-4.43-8.67-7.78-25.05-7.87-37.3a90.35,90.35,0,0,1,.93-12.95c.64-4.58,3.38-35.18,11-41.84l-187.7.18c7.59,6.66,9.3,38.53,9.93,43.11a88.94,88.94,0,0,1,.94,12.95c-.09,12.25-3.44,28.63-7.88,37.31,0,.05-5.7,14.89-5.72,14.8-18,53.43,7.59,90.14,56.47,98.8,16.91,3,31.52,13.07,38.34,18.44v.11ZM187,10.84l3.79,12.54H203l-9.9,7.76,3.78,12.53L187,35.92l-9.9,7.75,3.78-12.53L171,23.38H183.2L187,10.84ZM246.6,0l3.78,12.54h12.24l-9.91,7.75,3.79,12.54-9.9-7.75-9.91,7.75,3.78-12.54-9.9-7.75h12.24L246.6,0Zm56.2,12.06,3.78,12.55h12.25l-9.91,7.74L312.7,44.9l-9.9-7.75-9.9,7.75,3.78-12.55-9.91-7.74H299l3.78-12.55Zm53.09,29.66,3.79,12.54h12.24L362,62l3.78,12.54-9.91-7.75L346,74.55,349.77,62l-9.9-7.75h12.24l3.78-12.54Zm30.17,111.63c-1.66-1-1.66-4.3-2.67-4.34-.76,0-.47,1.51-.88,2.44s-1.29,1.07-1.78,2.68-1.41,6.45-.78,6.79,2.57-.39,4.53-1.43,6.31-2.81,6.49-3.47-3.25-1.66-4.91-2.67ZM102.92,171.56c-3.37,1-8.34-3-9.41-1.54a2.94,2.94,0,0,0,.8,3.17c1.51,1.18,7.28,3.27,7.11,4.09s-6.58,3-8.18,2.54-4.88-2.54-5.06-5.9,1.07-3.18,1.6-5.26-3-5.9-.45-9.44,5.16-3.82,6.76-5.45,2.31-5.35,5-7,5.68.73,9.24-.27,4.35-7.17,10.13-7.08,10.56,3.36,12.43,4.81,3.11.09,4.17,0,3.91-.63,5,.37,3.64,4.08,3.64,4.08-3.91-.09-6.22,1.81a37.64,37.64,0,0,0-6,6.81c-.8,1.27-.89,2.27-1.95,2.36s-2.31-1.9-3.11-1.72,1.16,2.63-.27,2.81-1.42,1.18-2.49,0-2.84-3.36-3.37-3.36.8,2.91-.18,4.45a51.2,51.2,0,0,1-5,5.54c-2.22,2.26-6.66,1.63-9.68.18s-.85,2.91-4.54,4Zm1.67,16.31a2,2,0,0,1-.85-1.86c0-1.45,1.81-4.43,5.22-5.55a50.85,50.85,0,0,0,10.83-5.63c3.52-2.27,6.78-5.17,9.54-6.46s5.21-2.63,6.3-2.19,1.79,2.39,1.83,3.43-3.52,4.09-6.61,5.59-6.1,1.6-7.58,2.38-2.63,2.22-4.07,3.41-2.67.78-4.58,1.34-3.81.73-4.48,1.66-3.35,1.76-3.82,2-1.27,1.81-1.73,1.86Zm16.71,12c-.19.59-1.31.59-2.06.3s-2.28-2.94-2.47-3.72a8.05,8.05,0,0,0-2.34-3.13c-.7-.39-3.27-.44-4.1-.77a1.44,1.44,0,0,1-.15-1.29c.29-.68.47-.19,1.82.2a6.9,6.9,0,0,0,3.27.1c1.17-.15.7-1,1.27-1.66s.28-.59-.14-1.67.18-.88.74-1.71a2.54,2.54,0,0,1,1.5-1.17c.65-.3,1,.09,2,.29s.88.73,1.49,1.08,1.4-.1,2.16.49-.11,2.25-1,3-2.94,2.25-2.85,3.42,1.08,5.63.89,6.21Zm17.75,60.73c.51,3.35.51,7.45,0,8.85a22.65,22.65,0,0,0-.62,7.45,73.73,73.73,0,0,1,1.65,8.64c.1,2.16.51,5.09-.21,6.69s-.81,5.83-2.37,5.62-4.54-6.49-6.19-7.35-9.79-.86-13.91-.43-11.55,0-13.72.43-1.65,1.84-3.61,1.52-3.4-3.35-3.3-5.73,2-6.69,4-13.82a195.33,195.33,0,0,0,5.25-26.34c.72-6.69,2.89-17.71,2.79-23.54s3.09-9.5,3.09-12.42-3.91-3.56-4.22-6.58c-.15-1.4,3.6-6.37,5.25-6.27s3.25,2.6,4.86,6.27c1.34,3-.44,12.48-.22,14.46s.42,3.57,1,1.73.89-4.59,1.45-7a30,30,0,0,1,2.44-7.2c.94-1.55,6-4.24,7-4.35s2.88.11,3,1.08-4.43,3.13-5.25,5.07a103,103,0,0,0-2.79,9.94c-.41,1.73-1.44,3.78-1.34,5.07s.72,3-.41,5.4-5.3,12.24-6.6,14.69c-2.06,3.88-3.3,19.65-2.78,19.76s3.6-10,4.64-10-.29,7.51-.2,9-.32,4.78.61,5.53,4.25-1.94,4.49-3.56-1.4-21.81-.78-24.19,6.49-12.63,6.91-15.33.67-16.05,2.19-16.29,3.27,5.28,4,9.06,1,14.9,1.14,17.92.51,19.54.51,20.84,1.65,2.05,2.17,5.4Zm251.48-4.53c.84,3.62,3.18,15.94,4.58,20.83s2.34,8.51,2,10.76-1.4,4.21-3.73,3.53-12-1.57-17.28-1.57-13.39-1-14.08.56-2.08,7.66-4,7.36-4.2-7.63-3.83-10.86,1.68-9.19,1.87-11S354.35,262,355.41,259s2.29-4.61,2.41-6.07-.26-21.8-.07-28.26,3.36-17.9,4.67-18,1.59,14,3.08,16.63,5.23,7.92,5.79,12-.74,12.82-.18,19.66,3.36,12.23,4.2,11.84,1.74-2.2,1.57-4.62-1.66-10.64-.82-11.13,4.13,11,4.76,11.05.84-12.81-.47-15.84-5.32-9.69-7.47-15.36-1.87-9.59-2.71-13.5-2.33-11.15-4.58-12.71-4.38-2.35-3.92-3.23,5.7-2.15,8,.68a24.82,24.82,0,0,1,4.86,11.15c.66,4,.75,5.63,2,5.63s-.7-11.59.14-15.36,2.61-6.7,4-6.85,4.11,1.81,4.58,3.08,1.35,3.18.7,4.31-4.11,4.45-3.6,5.87,3.16,3.79,3.38,6.1.92,16.54,1.29,19.72,2.66,16.63,3.5,20.25ZM377,192c.65.64,3.5-.59,4.81-.54s.83,1.13.23,1.72-4.48.34-5.32,1.85-2.67,5.19-4.54,5.19-.32-4.36.05-6.41-4.19-3.48-4-6.07c.1-1.07.84-.83,2.34-1s1.51-1.53,3.22-1.47,2.47,1.57,2.38,3.13.14,3,.8,3.62Zm10.57-7c-.47,1.69-3.74-1.37-4.28-1.93a11.27,11.27,0,0,0-4.93-2.35,10.41,10.41,0,0,1-5.91-3.67c-1.48-1.84-2.43-1.18-5.73-2.25s-8.08-5.76-7.79-7.9.54-1.59,1.16-2.15,4.68,1.43,7,2.76,5.66,5.2,8.23,7.24,7.39,4.34,9.39,5.46,3.37,3.11,2.9,4.79Zm-148-29.41h1c1.18,0,2.37,0,3.6,0h.72c1.23,0,2.42,0,3.6,0h.37l2.53-.07a19.27,19.27,0,0,1,2.07.35c2.68.65,6,5.15,9.91,7.86a111.69,111.69,0,0,0,18,9.54,118.28,118.28,0,0,0,16.69,5.54c6.59,1.71,13.05,2.59,13,3.34s-2.51.47-11.17-.46a119.23,119.23,0,0,1-24-5.24c-5.9-2.06-15-6.64-22.42-10.95-6.86-4-13.53-8.55-13.88-9.92Zm-12-.6c1.7.13,3.46.24,5.3.34h0c.24.49,6.59,5.28,9,7a109,109,0,0,0,12.8,7.53c3.36,1.52,14.33,6.07,15.78,6.66s9.29,3,12.75,4S295.59,183,299,183.57s10.79,1.46,13.31,1.27,9.53-1.57,9.53-2.2-8.72-2.18-18.26-4.36a78.47,78.47,0,0,1-15.55-5s-14.76-7.25-17.27-9.09-11.41-7.05-11.13-8.13a1.47,1.47,0,0,1,.79-1c2.42-.17,4.69-.37,6.82-.58a15.7,15.7,0,0,1,2.71,0c1.08.2,7.54,7.13,11.35,9.4s13.08,5.57,20.18,7.72,10.46,3.82,16.53,5.29,12.73,3.15,15.69,2.24,3.46-1.46,2.9-2.73-1.12-1.86-.61-2a28,28,0,0,1,9.93.85c4,1.3,4.78,2.67,6.65,2.87s6.91-.39,9.53.49,7.1,2.74,6.53,5-3.8,2.39-5.6,1.66-3.92-3.72-7.66-3.72-18,5.67-25.31,6.07-29.14.78-38.67.39a98.42,98.42,0,0,1-27.27-4.8c-8.41-2.83-19.11-11.46-22.49-14.14s-13.94-11.38-15.67-13.44c-.33-.39.25-.6,1.61-.69Zm46.61-1.29c4-.5,7.19-1,9.56-1.45a47.75,47.75,0,0,0,14.61,10.82,188.88,188.88,0,0,0,19.52,7.58c4.25,1.41,10.89,4.91,10.88,5.28s-6.59.39-13.59-1.91-10.65-4-15.6-5.62S287,164.1,283.07,162s-8.31-6.7-8.92-8a.37.37,0,0,1,0-.27ZM272.9,91.64c2.82,0,5.11,2.74,5.11,6.12s-2.29,6.13-5.11,6.13c-5.75-.83-4.67-12,0-12.25Zm-34.71-5.19c0-.39.38-.68,1-.68s.55.53,1.94.53,2.91-3.69,3.79-3.84a2.61,2.61,0,0,1,1.33-.6,3,3,0,0,1,.85.24,2,2,0,0,1,.66.28c.54.09,1.74,2.51,3.16,3.47.88.59,2.21-.08,2.45-.08.65,0,1,.29,1,.68S251.64,90,251,90.09s-2.73-4.18-4.73-4.18-4.13,4.22-4.73,4.18-3.39-3.26-3.39-3.64Zm-23.67,11c0-3.39,2.38-5.85,5.2-5.85.88,0,1.61.77,2.2,1.31,1.29,1.17,1.89,3,1.89,5.28a5.73,5.73,0,0,1-1.84,4.48,4.93,4.93,0,0,1-2.25,1.18c-2.82,0-5.2-3-5.2-6.4Zm-9.89,15.56a20.87,20.87,0,0,0-2.6-2.42,2.86,2.86,0,0,0-.65.14,6.94,6.94,0,0,0,.14,3c.46,1,1.07,2.43.7,3s-2.55-.19-3.85-2.23a16.5,16.5,0,0,1-2.6-8.93c0-4,.61-7.77,3.57-7.77a4,4,0,0,1,4,4c0,1.55-1.53,4.08-1.58,5.29s1.48,2.38,2.87,2.62,3,1.22,3.21,2.38,1,4.78.42,5-2.47-2.92-3.67-4.09Zm4.53,31.64c-.28-1.36-.82-10.27-.12-11.62.71-.56,4.52-2,12-3.86s20.26-2.36,21.09-2,0,10-.9,10.41c0-1-19.61,1.37-32.06,7.05Zm72.36,3.3c-9.63-2.21-19.95-6.53-34.9-7.07-12.45-.46-24,2.44-35.75,6.68a3.48,3.48,0,0,1,.62-2.13c12.4-5.77,31.25-7,35.24-6.83,0,0,10.21.73,15.78,1.63s17.69,4.37,18.61,5.34.89,2.45.4,2.38Zm-37.25-16.92c.19-1.22,1.2-1.37,2-1.41s1.86.2,2,1.41-.09,3.74-.65,4a3.48,3.48,0,0,1-2.78,0c-.56-.29-.83-2.82-.65-4Zm10.6,2.9c.24-1.84-.48-3.33,1.68-3.5s3.5-.17,3.26,2.17-1.27,3.67-2.47,3.67-2.71-.5-2.47-2.34Zm18.88,1.33c-1.51-.66-2.23-.08-4.06-.08s-3.1-1.33-3.5-.41.31,2.08.55,2.75.88.33-.39,1.25c-.54.38-3.59-1.92-3.27-4.5s3.66-3.42,7-3.34,7,2,6.53,4.42-2.31,4.34-2.87,4.09,1.51-3.51,0-4.18Zm20.5-20.79c-1.3,2-3.48,2.77-3.85,2.23s.23-1.94.7-3a6.94,6.94,0,0,0,.14-3,2.86,2.86,0,0,0-.65-.14,20.87,20.87,0,0,0-2.6,2.42c-1.2,1.17-3.1,4.33-3.67,4.09s.24-3.84.43-5,1.8-2.13,3.2-2.38,2.92-1.4,2.87-2.62-1.58-3.74-1.58-5.29a4,4,0,0,1,4-4c3,0,3.62,3.74,3.57,7.77a16.5,16.5,0,0,1-2.6,8.93ZM112.46,161.85c.94-.49,1.11-12.53.05-12.53s-2.19,3.34-3.69,4-4.84.27-5.17,1.75c0,0,7.88,7.25,8.81,6.76ZM267.28,439h.54c1.81,0,4.47-1.22,4.83-3.71h3.24V456h-4.31V441.45h-4.3V439Zm-12.14-1.23c-2.44,0-3.33,2.2-3.33,4.1,0,2.51,1.44,4,3.36,4,2.51,0,3.41-2.11,3.41-4,0-.95-.4-4.16-3.44-4.16Zm-18.11.31c-2.43,0-3.32,2.19-3.32,4.08,0,2.49,1.44,4,3.34,4,2.51,0,3.39-2.1,3.39-3.94,0-1-.38-4.14-3.41-4.14Zm-20.91.92h.55c1.8,0,4.46-1.22,4.83-3.71h3.23V456h-4.31V441.45h-4.3V439ZM261,498.21H387.18V495.8H261v2.41Zm-155.16,0H232V495.8H105.85v2.41Zm331.7,44.35-44.37-61.23a21.64,21.64,0,0,0-3.85,0,16.74,16.74,0,0,0-3.43,1.13l29,48.2s-45.51-12.38-72.77-15.18c-19.34-2-43.3-1.77-61.08.89S245,528,245,528l-.13.06-.15-.06s-18.25-9-36-11.63-41.73-2.88-61.07-.89c-27.26,2.8-72.77,15.18-72.77,15.18l29-48.2a16.67,16.67,0,0,0-3.44-1.13,21.54,21.54,0,0,0-3.84,0L52.19,542.56h.28l175.33-10.4-.81,8.22h35.77l-.81-8.22,175.33,10.4Zm-282.7-86.64s5,1.87,6.1,2.89,2.55,7.64,4,10.87,1.75,5.27,2.88,7.3-.87,2.38-2.5.68-5.61-3.06-5.59-4.08-1.46-2.88-2.9-6.11-3.41-5.26-3.39-7.14a30.88,30.88,0,0,1,.74-4.92l.66.51ZM72.28,303.57s-9.07,10.06-10.12,12.8A106.53,106.53,0,0,0,58.25,329a29.79,29.79,0,0,1,.68-9.17c-.18-3.66,5-12.91,13.35-16.25ZM93,440.33c-2.32.23-9.41-4-13.08-5.68A23.32,23.32,0,0,0,72.88,431c-10.87,4.27-27.94-9.21-27.68-9.41-1.54-.65,19.55,10.76,27.3,6.27,1-.54-3-3.66-4.86-5.23-1.51-1.13-6.82-4.49-8.79-4.65a34.75,34.75,0,0,1-26.14-13.54c.21-.18,7.26,6.31,16.77,8.79C52.6,414.6,59,416,60.54,415.76c-2.21-2.7-7.22-11.38-6-13.44C55,403.69,67.26,420.17,70.38,421c1,1.38,1.91,1,2.39-.06.41-1.31-.13-10.13.65-10.11s.43,10.56,3.58,16.63a93.66,93.66,0,0,0,9.61,7.91c2.84,1.41,7.17,5.24,6.41,5Zm18.19-7.15c-.78,0-1.53-1.35-2.54-2.82s-3.93-12.2-5.82-14.91-13-12.95-12.58-16.37c.39-.34,8.33,9,9.22,9.55s1.27.95,2.05,0c-2-18.53-16.06-24-14.82-24.68,8,2.27,12.48,7.9,15.19,10.49.8-.13-.51-2.9-.88-4.08-8.44-12-7.45-17.52-3.93-34.85.08-.36-1.71,12.41,2.18,22.83.25.67.47-5.13,8.8-9,.26-.12-6,6.18-7.61,12.81.18,4.24,2.09,5.77,3.39,7.83,2.7,4.29,1.13,13.07,1.06,17.85,0,1.74.61,6.11,1.41,6.11s.8-3.29.84-5.69c-.74-9,4.63-23.72,12.19-27.08-10.93,8.52-9.61,41.14-5.34,51,.74,1.73-2.69.93-2.81.93ZM85.48,383.35Zm-.72-.27ZM44.25,370.13c.27.58,2.64,1.87,1.07,2.89-.27.18-13.55-10.61-16.67-12.16-2.43-1.71-14.33-4.79-14.89-4.59.7-2.11,11.63,1.36,12.5-.5C4,346.15,4.85,342.58,5.75,335.9c.74,9.46,22.83,19.87,13.18,8.09-7.88-9.74-8.71-18.58-7-25.47C10.6,334.3,27.36,349.58,30.73,357c-.33-8-7.48-17,.18-25.95-2.58,5.21-3.15,22.63,13.34,39.13Zm-2-84.71c-.72.2-.31-6.51-.9-9.75.89-4.12-8.48-13.11-9.48-12.67.44-.54,4.57.39,6.18,1.3,1.69,1.53,2.37,5,5.65,8.79.58.54,3,.36,2.69-7.76-3-14.26-18-14.66,5.21-37.34-8.55,8.75-10,18.61-4.46,28.5,4.93,6.69,3.45,12.71-1.6,19.6-.9,1.23-2.57,9.13-3.29,9.33Zm6.66,36.07c-.09-.7-.19-1.39-.27-2.08,1.25,1.25,3,2.88,3.86,2.91,1.37.05,2.27-4.83,2.32-6.81a89.85,89.85,0,0,0-1.14-9.89c-.18-.92-.54-2.49-.74-3.18a1.1,1.1,0,0,1-.14-.34c0-.09.05.07.13.38.45,1,2.06,3.89,2.25,5a19,19,0,0,0,1.62,4c1.93-4,4-9.78,6.92-14.83,2.94-3.9,4-3.83,3.23-2.32s-4.64,10.06-4.62,10c-.24.33-5.84,14.24-6.94,20.2-.31,2.49-.14,16.33-.14,16.33s-1.9-6.7-2-8.17-1.42-7.07-2.5-8.17a16.53,16.53,0,0,1-1.83-3.08ZM132.46,438s-2.54,21.66,2.53,30.41c8.2,14.16,17.55,20.4,32.26,23.26,0,0,11.87,1.95,17.18,1.95a108.93,108.93,0,0,0,12-.91,60.92,60.92,0,0,1-12.14-11l-1.88-2.36a1.76,1.76,0,0,1-.24-.31c-5.35-7.46-5.23-14.5-7.17-15.85s-9.26-3.51-10.43-3.37-1.44.9-.81,1.94a60.58,60.58,0,0,1,4.52,9.62c.86,3,.8,6.49,2.08,7.79s6.42,4.75,7.45,5.53,2.29,1,2.27,2,.09,2.48-.55,2.47c-2.68,0-7.07-5.11-12.82-8.32-4.13-2.3-5.73-3.89-9.24-5.06-2.55-.86-7-1.69-7.46-2.6s.43-1.11,2-.71,4.6.61,5.26.22-5.42-8.61-8.24-10.87c-4.73-1.24-13.46-10.94-13-11.39,6.46,5.14,9.53,7,15.29,9.33,1.18.47,1.15-2.91.94-3.67s-4.5-3.61-8.17-5.52A25.24,25.24,0,0,1,133.91,440a23,23,0,0,1-1-2.27s.17-.74-.42.27Zm207.06,17.6s-4.9,1.9-6,2.93-2.51,7.77-3.94,11.06-1.73,5.35-2.85,7.42.86,2.42,2.47.69,5.54-3.11,5.53-4.15,1.44-2.93,2.87-6.21,3.37-5.35,3.34-7.25a32.31,32.31,0,0,0-.73-5l-.65.52Zm81.64-154.87s9,10.22,10,13A109.64,109.64,0,0,1,435,326.57a31.39,31.39,0,0,0-.67-9.33c.17-3.71-5-13.12-13.21-16.51Zm-20.51,139c2.3.23,9.31-4.05,12.94-5.78a22.84,22.84,0,0,1,7-3.67c10.74,4.35,27.63-9.36,27.36-9.56,1.54-.66-19.33,10.94-27,6.38-.94-.55,2.92-3.72,4.8-5.32,1.49-1.15,6.74-4.56,8.69-4.73a34,34,0,0,0,25.85-13.77c-.21-.17-7.19,6.42-16.59,8.94-3.08,1.35-9.38,2.79-10.93,2.54,2.18-2.75,7.14-11.57,5.91-13.67-.44,1.39-12.55,18.15-15.64,18.95-1,1.41-1.89,1-2.37-.06-.4-1.33.13-10.3-.63-10.27s-.43,10.73-3.54,16.9a94.35,94.35,0,0,1-9.51,8c-2.81,1.43-7.08,5.32-6.34,5.08Zm48.23-71.36c-.27.59-2.62,1.9-1.07,2.94.27.18,13.4-10.8,16.49-12.37,2.41-1.74,14.17-4.86,14.72-4.66-.69-2.15-11.49,1.39-12.36-.51,22-9.78,21.18-13.41,20.29-20.2-.74,9.62-22.58,20.2-13,8.22,7.79-9.9,8.62-18.88,7-25.89,1.28,16.05-15.3,31.57-18.63,39.07.33-8.09,7.4-17.24-.17-26.38,2.55,5.3,3.11,23-13.19,39.78Zm1.94-86.12c.71.21.31-6.61.9-9.91-.89-4.19,8.38-13.32,9.37-12.88-.44-.55-4.52.4-6.11,1.33-1.67,1.55-2.35,5.08-5.59,8.93-.57.55-3,.36-2.66-7.89,3-14.5,17.78-14.9-5.15-38,8.45,8.9,9.85,18.92,4.41,29-4.88,6.81-3.41,12.93,1.58,19.93.89,1.25,2.54,9.28,3.25,9.48Zm-6.58,36.67c.09-.71.19-1.42.27-2.12-1.23,1.28-3,2.93-3.82,3-1.35,0-2.25-4.91-2.29-6.93a90.44,90.44,0,0,1,1.13-10.05c.17-.94.53-2.53.73-3.24a.92.92,0,0,0,.13-.34c0-.1-.05.07-.12.39-.45,1.06-2,3.95-2.23,5.12a18.92,18.92,0,0,1-1.6,4c-1.91-4.06-4-9.93-6.84-15.07-2.91-4-4-3.9-3.2-2.36S431,301.56,431,301.55c.23.34,5.78,14.47,6.86,20.53.31,2.53.14,16.6.14,16.6s1.88-6.81,2-8.3,1.41-7.19,2.48-8.31a16.58,16.58,0,0,0,1.81-3.13ZM361.66,437.38s2.51,22-2.5,30.91c-8.11,14.4-17.35,20.74-31.9,23.65,0,0-11.74,2-17,2a104.2,104.2,0,0,1-11.92-.93,61.5,61.5,0,0,0,12.29-11.48l.33-.41c.29-.36.21-.28.51-.66,6.28-8.05,6-16,8.06-17.43s9.16-3.56,10.31-3.43,1.42.92.8,2a61.31,61.31,0,0,0-4.46,9.77c-.86,3-.8,6.6-2.06,7.93s-6.35,4.82-7.37,5.61-2.26,1-2.25,2.05-.09,2.52.55,2.51c2.64,0,7-5.19,12.68-8.45,4.07-2.35,5.66-4,9.13-5.16,2.52-.87,6.89-1.71,7.38-2.64s-.43-1.12-2-.72-4.55.62-5.2.22,5.36-8.75,8.14-11c4.68-1.26,13.31-11.13,12.84-11.58-6.38,5.23-9.43,7.16-15.12,9.49-1.16.47-1.13-3-.93-3.74s4.45-3.66,8.08-5.61c6.16-3.29,9.27-9.12,10.12-10.79.57-1.11,1-2.3,1-2.3s-.17-.76.41.27ZM135.59,43.55l3.78,12.54h12.25l-9.91,7.75,3.79,12.54-9.91-7.75-9.9,7.75,3.78-12.54-9.9-7.75h12.24l3.78-12.54Zm127,435.56,49,0-2.19,2.63-50.6-.09,3.75-2.58Zm-32.74,0L183.48,479l2,2.72h47.88l-3.51-2.58Zm152.86-46.63c.77,0,1.51-1.37,2.51-2.87s3.88-12.4,5.75-15.15,12.88-13.16,12.44-16.64c-.38-.35-8.23,9.13-9.11,9.7s-1.25,1-2,.05c1.93-18.84,15.88-24.43,14.66-25.09-7.92,2.31-12.34,8-15,10.66-.78-.13.51-2.95.88-4.14,8.34-12.18,7.36-17.82,3.88-35.44-.07-.36,1.69,12.62-2.15,23.22-.25.68-.47-5.22-8.71-9.15-.25-.12,5.89,6.29,7.53,13-.18,4.31-2.07,5.86-3.36,8-2.66,4.35-1.11,13.28-1,18.14,0,1.77-.6,6.22-1.4,6.22s-.79-3.35-.82-5.79c.73-9.14-4.58-24.11-12.06-27.53,10.8,8.67,9.5,41.83,5.28,51.88-.73,1.75,2.66.94,2.78.94ZM246.39,95.89c2.51,0,3.93,3.65,3.93,7.16s-2.16,7-4,7-3.76-3-3.76-6.21,1.17-7.92,3.85-7.92ZM245.08,113h2.7s0,3.89,1.85,5.88a17.31,17.31,0,0,0,4.82,3.35l-.08,1.33-16.05.17v-1.5a19.59,19.59,0,0,0,4.73-3.53c3.15-4.31,2.06-5.77,2-5.7ZM236,136.8c3.11,0,3.66-5.73,2.6-5.64s0,4.38-2.55,4.38-1.81-3.8-2.74-3.89-.42,5.15,2.69,5.15Zm-9.5,1.55a4.06,4.06,0,0,0,3.52-4.42c-.05-3.59-4.69-3.53-7.47-3.53-3,0-6.67,2.66-6.76,4.7s2.22,3.69,3.94,3.64-.61-3.55,2.92-3.69,3.2,3.3,3.85,3.3Zm-5.2-5.22c-.93.24-2.87,1.34-2.69,2.16s1.4,2.24.88,2.53-2.82-.78-2.78-2a5.94,5.94,0,0,1,6-4.75c1.62,0,4.68.61,5.86,1.89.27.3.32.83,1,.77a3.91,3.91,0,0,1-2,3.25c-.1-1.05,1.16-3-.75-3.33s-2,.71-3.33.71-1.21-1.43-2.14-1.19Zm-14.4,19.24c2.5.48,5.18,1,10.4,1.63,1.09.48,2.07,1.11,2,1.59-.18.88-1.49,1.66-2.61,2.35s-2.82,2.9-3.77,3.32-2.11,1.18-7.91,4.35-7.1,4.07-7.1,4.07a2.56,2.56,0,0,0,2.43.39c1.68-.39,5.61-1.66,6.82-2.54s5.23-4.73,8.5-6.46,5.58-2.62,8.41-2.25,3.27,3.91,1.87,6.79-13.55,8.57-13.55,8.57,3.55,0,5.05-.1,7.56-2.56,9-3.33,7.19-1.86,8.5-2.34,1.24.72,2,1.71.19,1.81-.83,3.57-3.65,3.23-6.26,4-5.51,3-9,3.94-6,1.15-9.29,1.93-13.91,3.32-17.28,3.62-5.32,1.17-8.41,1.47-22.6-.3-24.37-.5a126.09,126.09,0,0,1-13.17-3.62,49.87,49.87,0,0,0-10.43-1.92,9.34,9.34,0,0,0-3.77,1.73,19.3,19.3,0,0,1-5.23,2.45c-1.77.58-2.14-.24-2.61-1.67s-.48-2,.55-3.13,3.65-1.95,5-2.25,7.57-.78,11.31-1.27,4.29-3.23,4.29-3.23,5.79-.19,10.37-.58,22.7-5,31.85-10.66,15.88-11.07,16.49-11.38a3.18,3.18,0,0,1,.85-.26Z"/><path class="cls-1" d="M225.6,282.65c-11,2.54-14.93,11.93,1.42,13.44,6.88.63,14.5-3.27,14.78-8.4,0-8.57-9.69-18.43-27.26-18.43s-41.33,8.21-41.33,42.84,27,48,36.77,48c25.75,0,41-24.52,15.1-27.64,0,0-14.79-.74-14.79,6.8s11.85,7.45,11.85,7.45.08,7.4-7.93,7.4-18.07-8.33-18.07-35.51c0,0-6.84.85-6.84-2.62s7.85-3.44,10.23-3.44c6.91,0,14.88,4.43,16.45,4.43a2.82,2.82,0,0,0,2.59-2.5c.08-1-.92-1.65-.92-3s9.45-3.21,9.45-7.07a4.59,4.59,0,0,0-2.25,0c-.92.33-17,3.72-26.28,3.72s-9.86-2.29-9.79-4c.25-7,8.94-14.83,9.12-15.66.06-.28-.17-.41-1.59-.41s-1.17.23-3.56.23-2.22-.86-2.22-1.22,6.24-10.21,22.43-10.21c3,0,16.62,2.76,12.64,5.78Z"/><path class="cls-1" d="M264.07,282.08s9.18,3.56,9.18,7.86-6.68,7.27-12.69,7.27c-20.28,0-8.57-27.91,16.7-27.91,13.53,0,16.1,5.92,16.1,9.11s-8.92,19.93-8.92,26.14,3.17,8.13,8,8.13,10.19-.82,10.19-10.23c1.95-10-5.05-34,13.44-33.34,7.51,0,7.68,2.37,7.68,5s-6,3.29-8,6.12,4.81,38.39,4.27,43c-1.16,10.14-7.38,37.62-37.1,36.8,1.35,0-19.74-.21-22.69-14.64,0-14.43,16.19-12.16,18.53-12.16s8.72,1.49,8.72,5.69c1.43,6.13-7.55,8.44-9.39,8.4,0,.33,1.83,4.2,5.18,4.72,20.78,3.2,25.2-24.25,26.06-30.17,0,0-13.49,6.75-20.89,4.54-3.33,0-11.52-3.93-11.52-8.31v-5.94l-7.84.55a110.09,110.09,0,0,1,6.76-18.18c4.26-8.63,8.27-17.94-.75-17.94s-11,5.43-11,5.43Z"/><path class="cls-1" d="M255,429.07l-.42,0-.42,0-.41,0-.4,0-.39,0-.39,0-.39,0-.39-.05-.37-.05-.36,0-.63-.1-.57-.08-.52-.08-.48-.07-.44-.07-.41-.05-.36,0-.34,0-.3,0-.26,0-.24,0-.21,0h-1.39l-.23,0-.26,0-.28,0-.33,0-.36,0-.39.05-.43.06-.47.06-.52.07-.55.08-.6.09-.67.09-.33,0-.36.05-.36,0-.38,0-.37,0-.38,0-.38,0-.39,0-.41,0-.4,0-.42,0-.42,0-.43,0-.44,0-.44,0-.47,0H233l-.48,0h-.48l-.49,0h-1l-.52,0h-5.15l-19.48.22.29-6.51.16-1.07.28-1.07.44-1.06.62-1.05.79-1,1-.89,1.09-.76,1.16-.61,1.18-.47,1.15-.34,1.09-.23,1-.16,1-.11.93-.06.89,0h2.46l.76,0,.72,0H225l.55,0,.5,0,.46-.05.16,0V379.33l0-.21,0-.19h-.05l-.37,0h-.09l0,0-.68.44-.84.58-1,.71-1,.8-1.12.87-1.17.93-1.23,1-1.26,1-1.31,1-1.33,1-1.35,1-1.38,1-1.4.93-1.44.88-1.49.83-1.56.76-1.69.67-1.89.55-2.18.36h-2.51l-2.68-.57-2.4-1.19-1.81-1.59-1.2-1.73-.77-1.79-.47-1.85-.26-2-.09-2.19,0-.49.07-.44.08-.36.09-.32.1-.3.1-.27.1-.27.12-.26.11-.26.11-.25.12-.24.12-.25.13-.25.14-.26.13-.25.13-.23.09-.17.06-.11,0,0-.33-.2-.41-.22-.46-.23-.54-.25-13.72-6,14.52-4.1.44-.13.42-.12.41-.11.41-.12.41-.11.41-.11.42-.11.43-.1.44-.1.46-.09.47-.09.49-.08.52-.07.54-.05.55,0,.56,0h.57l.57,0,.56,0,.55.05.55.07.54.09.52.1.51.11.5.12.5.13.49.13.49.15.5.15.51.16.37.12.82.24.7.16.74.12.79.08.85,0h.9l1,0,1-.07,1.08-.1,1.13-.14,1.19-.17,1.23-.2,1.28-.22,1.32-.24,1.36-.26,1.4-.26,1.45-.27,1.48-.26,1.52-.26,1.55-.24,1.6-.22,1.63-.19,1.67-.16,1.71-.11,1.75-.06h1.77l1.82.07,1.84.15,1.86.23,1.89.33,1.26.28,1.21-.27,1.86-.33,1.85-.23,1.82-.15,1.79-.07h1.76l1.72.07,1.68.11,1.65.16L263,363l1.56.23,1.53.24,1.49.26,1.46.26,1.41.27,1.37.27,1.34.25,1.29.24,1.24.22,1.2.2,1.15.16,1.09.14,1,.1,1,.06.93,0H283l.8-.05.74-.09.7-.11.66-.16.81-.25.86-.29,1-.31,1-.28,1-.23,1.08-.19,1.12-.13,1.15,0,1.14,0,1.08.1,1,.16.93.2.87.21.82.22.8.24.81.24,14.48,4.33-13.39,5.88-.53.25-.47.24-.4.22-.34.2,0,0,.1.18.29.48.3.53.28.54.25.54.22.57.2.62.15.71.06.75-.09,2.15-.27,1.91-.51,1.81-.84,1.77-1.31,1.7-1.93,1.52-2.45,1.06-2.6.46-2.4,0-2.1-.35-1.85-.53-1.67-.65-1.56-.73-1.49-.8-1.45-.85-1.42-.9-1.4-.93-1.37-1-1.34-1-1.31-1-1.27-1-1.23-.93-1.18-.9-1.12-.84-1-.77-.94-.68-.83-.57-.64-.41h-.06l-.35,0V379l0,.14,0,.15v34.77h0l.46,0,.52,0,.57,0h2l.74,0,.77,0,.79,0,.83,0,.86,0h1.81l1,0,1,.08,1.05.12,1.11.2,1.17.29,1.21.41,1.21.55,1.18.71,1.07.87.91,1,.72,1.07.51,1.11.34,1.12.18,1.12.31,6.4-20.53.2h-5.78l-.5,0h-1l-.46,0h-.45l-.44,0h-.45l-.45,0-.44,0-.44,0-.43,0-.42,0Zm-59.67-47.72a3.26,3.26,0,0,1,.32-1c.21-.48.48-1,.79-1.57a12.32,12.32,0,0,0,.79-1.65,3.83,3.83,0,0,0,.32-1.19c0-1.85-2.11-3.66-6.33-5.46,5.09-1.43,5.77-1.83,10.75-.19,12.62,4.16,28.32-6,44.09-1.07,15.47-4.89,30.87,5.3,43.18,1,4.85-1.68,5.74-1.21,10.59.23-4.22,1.8-6.32,3.61-6.32,5.46a6.19,6.19,0,0,0,1.1,2.88,6.13,6.13,0,0,1,1.11,2.57c0,19.36-24.25-7.83-29.4-7.83q-5.85,0-7.28,1.8a7.09,7.09,0,0,0-1.42,4.49v34.8a3.94,3.94,0,0,0,2.85,4.07c7.47,2.62,19.21-2.51,19.21,5.17l-13.52.13c-3.27,0-6,0-8.22-.12a48.77,48.77,0,0,1-5.62-.46c-6.74-1-6.61-1-13.67,0a129.78,129.78,0,0,1-13.91.58l-12.32.13c0-7.7,10.53-2.85,18.09-5.43a4,4,0,0,0,2.92-4.07v-34.8a6.38,6.38,0,0,0-1.58-4.72q-1.57-1.57-7.11-1.57c-5.77,0-29.41,28.48-29.41,7.83Z"/><polygon class="cls-2" points="154.34 213.79 340.91 213.88 340.78 250.06 154.46 249.96 154.34 213.79 154.34 213.79"/><path class="cls-3" d="M312.58,221.12h2.07c-1.06,1.33-2,5.23-2.46,9.24,8.46-.43,16.56-.63,19.58,6a5.06,5.06,0,0,1-1.5,6c-1.8,1.29-4.34,1.94-7.64,1.94a25.91,25.91,0,0,1-9.52-1.89,12.26,12.26,0,0,1-4.51,1.11,11.43,11.43,0,0,1-5.83-1.36A6.67,6.67,0,0,1,300,238a5.51,5.51,0,0,1,.56-3.52,86.67,86.67,0,0,0,9.6,4.64c-.7-1.77-.48-5.08-.12-7.42-3.32,0-6.49.16-9.12.25-6.06,4.26-12.7,8.61-15.21,9.1,4.31-.24,9.42-2.19,13.08.49a19.77,19.77,0,0,1-1.12,1.94c-.7-3-9.8-1.27-12.28-1l-5.1.61,1.27-1.53h0c2.32-3.44,2.54-7.87,3.55-11.32.36-.5-8.51,7.79-11.45,12.55h-2c.72-2.16.9-7.22-.15-9.67-1,1.24-2.23,2.69-3.36,3.89a16.8,16.8,0,0,1-10.68,5.6,11.74,11.74,0,0,1-7.13-.92c-6.46,2-15.91,2.28-23.07-.6a12.13,12.13,0,0,1-2.22-1.18c-7.68,5.84-25.6,3.19-32.14-.36a30,30,0,0,1-3.88,1.83A33.77,33.77,0,0,1,178.31,243q-7,0-11.28-2.75t-4.76-6.88a6.21,6.21,0,0,1,2.31-5.72c2.56-1.92,5.59-2.42,9.22-1.86a23.42,23.42,0,0,1,6.21,2,11.78,11.78,0,0,1,4.47-.83,7.82,7.82,0,0,1,5,1.54,5.47,5.47,0,0,1,2.22,4,8.13,8.13,0,0,1-1.71,4.95,52.89,52.89,0,0,0-11.33-8c-3.05,2.23-3.21,5.24-1.86,8.2a4.28,4.28,0,0,1-2.5-3.21c-.18-2,1.14-3.69,3.49-5.47a22.31,22.31,0,0,0-3.57-1.61,9.05,9.05,0,0,0-7.85,1.3c-4.76,3.51-.37,10.74,6.72,12.05,2.3.43,4.7,1.07,7.15.8a26.56,26.56,0,0,0,11.66-3.73,5.78,5.78,0,0,1-.08-.74c-.07-1.8,2-3,4.63-3.41a32.93,32.93,0,0,0,5-10.59l-13.94.07h-1.54l-1.8.06a3.63,3.63,0,0,0-1.53.37,2.42,2.42,0,0,0-.89,1.06l-.08.2-.83-.13.17-.35c.26-.55.48-1,.68-1.49l.6-1.39.14-.31h22.88l-.22.78a36.36,36.36,0,0,1-5.13,11.54,14.39,14.39,0,0,1,2.09.27,32.89,32.89,0,0,1,6.87,2.07,12.85,12.85,0,0,0,3.92-1,6.57,6.57,0,0,1,.68.7,38.24,38.24,0,0,1-4.75,2.16,15.11,15.11,0,0,0-9.89-2.77,21,21,0,0,1-2.18,2.24,23.28,23.28,0,0,1-2.44,1.87c12.54,4.84,22.78,3.73,28.77-.67a8.17,8.17,0,0,1-2.49-4.55c0-.33-.06-.66-.08-1-5-.86-12.73-.68-15.34-.57l3.41-3.19c4.21.17,7,.73,11.26-.34.7-.17,1.33-.34,1.93-.51l.12-.14a16.91,16.91,0,0,1,5.79-4c-3.14-1.78-16.37-1.53-19.51,2l-.89-1.84s1.53-1.27,5.37-2.1a31.83,31.83,0,0,1,8.43-.9,25.17,25.17,0,0,1,6.58,1.05,3,3,0,0,1,1.43,1.21c7.93-3.21,18.76-3.48,26.35.47l-1.26,2.5a10.54,10.54,0,0,1,6.06,4.51c3.45.34,4.77,2,6,3,.17.12-.44.65-.74.91.06,0-2.76-2.45-5.06-2.47-.23,2.36-2.19,4.61-4.21,6.5a12,12,0,0,1-3.16,2,12.29,12.29,0,0,0,8.83-1.35c3.76-2.11,6.22-4.72,8.95-8.39-6.47-7.07,5.51-13.63,6.72-7.8.57,2.75-2.63,5.3-4.31,7.56,1.15,1.72,1.34,4.36,1.39,6.26A114.91,114.91,0,0,1,289,223.64a15.24,15.24,0,0,1,8.43-2.23,51.88,51.88,0,0,0,6,0l1.84-.85s.87.11.85.07-3.06,2-3.36,2.3c-.14,0-4.43,0-6,.09a13.11,13.11,0,0,0-6.09,1.91c-3.83,2.9-4.08,8.12-5,11.47a13.32,13.32,0,0,1-1.94,4.44c2.51-1.17,4.42-2.93,6.93-4.65,2-1.38,4-2.74,6-4.08-4.84-.77-3.44-3.67-1.57-4.52a10.2,10.2,0,0,1,3.24-.62c.06,0-5.89,2.25.77,3.32l.23,0c4.44-3,8.84-6,13.24-9.15Zm-79,6.48h0a16.41,16.41,0,0,1-2.15-1.76c-.17-.15-1.22.88-1.42.9a15.62,15.62,0,0,0,2.22,1.71l.06-.05c-.8.55-1.6,1.15-2.39,1.81,0,0-.59,2.8-.37,2.21a19.27,19.27,0,0,1,4-3.05h0c4.87,2.55,12.89,5.38,19.62-1.75-.65-.15,2.91.74,4.55,3.07-8,.66-11.06,6-9.08,9.24a32.51,32.51,0,0,1-6.42,1.14c-7,.5-12.27-.54-15.59-3.18a5.09,5.09,0,0,0,.4-2.86c-.21-1.57-1.39-2.73-4-3.42a5.2,5.2,0,0,1,.75-2.77c2.9-.87,5.18-2.16,5.58-4a1.23,1.23,0,0,0,0-.27c6.92-2.89,17.15-3.37,24.14-.29l-.7,1.45c-5-1.48-10.6-3-19.26,1.85Zm1.4.91h0c4.67,2.12,10.69,4.41,17.19-1.46A19,19,0,0,0,235,228.51Zm77,3.2c-.33,3.34-.34,6.56.13,8.22l2.23,1c3-2.08,2.76-4.91,1-7.67a4.21,4.21,0,0,1,2.8,2.79c.45,1.89-.47,3.66-2.76,5.34,3.2,1.38,4.86,1.93,7.44,1.85,7.64-.22,9.57-7.08,2.74-10-2.66-1.14-8-1.45-13.53-1.46Zm-1.78-1.31a38.64,38.64,0,0,1,1.71-6.5c-1.41,1-5,3.74-9.13,6.69,2.42.09,4.87-.07,7.42-.19ZM208,230.92c1.9-.12,3.33.1,4.9,0a52.18,52.18,0,0,1,7.52.19,6.31,6.31,0,0,1,.36-1.59,43.5,43.5,0,0,1-10.15.68c-.08,0-2,.15-1.92-.14,0,0,.18.08-.71.82ZM257.84,232a3.37,3.37,0,0,0-1.35,0c-3.09.4-8.65,3.91-6.07,7.17,4.06-1.5,7.07-4,7.42-7.17ZM190,234.27c1.69-4.12-2.78-7.93-8.92-6.07a37.17,37.17,0,0,1,8.92,6.07Zm34.87,1.8a2.43,2.43,0,0,0,.05-1.23c-.12-.55-.66-1-1.5-1.35a9.72,9.72,0,0,0,1.45,2.58Zm.84-9.35a5.44,5.44,0,0,0,2.37-1.51,13.75,13.75,0,0,0-2.37,1.51Zm46.65,2.87c-6.37-4.49,4.52-11.68,3.85-5.07-.08.82-3.18,3.7-3.85,5.07Zm28.91,6.86a2.65,2.65,0,0,0-.23,1.66c.91,3.69,6.47,5.56,10.83,3.91a49.45,49.45,0,0,1-10.6-5.57Z"/></g></g></svg>